<svg width="1320" height="671" viewBox="0 0 1320 671" fill="none" xmlns="http://www.w3.org/2000/svg">
<rect width="1280" height="640" fill="black"/>
<g opacity="0.2">
<path fill-rule="evenodd" clip-rule="evenodd" d="M13.3333 17.6667L20 21L13.3333 24.3333L10 31L6.66667 24.3333L0 21L6.66667 17.6667L10 11L13.3333 17.6667Z" fill="white"/>
<path fill-rule="evenodd" clip-rule="evenodd" d="M973.333 17.6667L980 21L973.333 24.3333L970 31L966.667 24.3333L960 21L966.667 17.6667L970 11L973.333 17.6667Z" fill="white"/>
<path fill-rule="evenodd" clip-rule="evenodd" d="M493.333 17.6667L500 21L493.333 24.3333L490 31L486.667 24.3333L480 21L486.667 17.6667L490 11L493.333 17.6667Z" fill="white"/>
<path fill-rule="evenodd" clip-rule="evenodd" d="M253.333 17.6667L260 21L253.333 24.3333L250 31L246.667 24.3333L240 21L246.667 17.6667L250 11L253.333 17.6667Z" fill="white"/>
<path fill-rule="evenodd" clip-rule="evenodd" d="M1213.33 17.6667L1220 21L1213.33 24.3333L1210 31L1206.67 24.3333L1200 21L1206.67 17.6667L1210 11L1213.33 17.6667Z" fill="white"/>
<path fill-rule="evenodd" clip-rule="evenodd" d="M733.333 17.6667L740 21L733.333 24.3333L730 31L726.667 24.3333L720 21L726.667 17.6667L730 11L733.333 17.6667Z" fill="white"/>
<path fill-rule="evenodd" clip-rule="evenodd" d="M133.333 17.6667L140 21L133.333 24.3333L130 31L126.667 24.3333L120 21L126.667 17.6667L130 11L133.333 17.6667Z" fill="white"/>
<path fill-rule="evenodd" clip-rule="evenodd" d="M1093.33 17.6667L1100 21L1093.33 24.3333L1090 31L1086.67 24.3333L1080 21L1086.67 17.6667L1090 11L1093.33 17.6667Z" fill="white"/>
<path fill-rule="evenodd" clip-rule="evenodd" d="M613.333 17.6667L620 21L613.333 24.3333L610 31L606.667 24.3333L600 21L606.667 17.6667L610 11L613.333 17.6667Z" fill="white"/>
<path fill-rule="evenodd" clip-rule="evenodd" d="M373.333 17.6667L380 21L373.333 24.3333L370 31L366.667 24.3333L360 21L366.667 17.6667L370 11L373.333 17.6667Z" fill="white"/>
<path fill-rule="evenodd" clip-rule="evenodd" d="M853.333 17.6667L860 21L853.333 24.3333L850 31L846.667 24.3333L840 21L846.667 17.6667L850 11L853.333 17.6667Z" fill="white"/>
<path fill-rule="evenodd" clip-rule="evenodd" d="M73.3333 17.6667L80 21L73.3333 24.3333L70 31L66.6667 24.3333L60 21L66.6667 17.6667L70 11L73.3333 17.6667Z" fill="white"/>
<path fill-rule="evenodd" clip-rule="evenodd" d="M1033.33 17.6667L1040 21L1033.33 24.3333L1030 31L1026.67 24.3333L1020 21L1026.67 17.6667L1030 11L1033.33 17.6667Z" fill="white"/>
<path fill-rule="evenodd" clip-rule="evenodd" d="M553.333 17.6667L560 21L553.333 24.3333L550 31L546.667 24.3333L540 21L546.667 17.6667L550 11L553.333 17.6667Z" fill="white"/>
<path fill-rule="evenodd" clip-rule="evenodd" d="M313.333 17.6667L320 21L313.333 24.3333L310 31L306.667 24.3333L300 21L306.667 17.6667L310 11L313.333 17.6667Z" fill="white"/>
<path fill-rule="evenodd" clip-rule="evenodd" d="M1273.33 17.6667L1280 21L1273.33 24.3333L1270 31L1266.67 24.3333L1260 21L1266.67 17.6667L1270 11L1273.33 17.6667Z" fill="white"/>
<path fill-rule="evenodd" clip-rule="evenodd" d="M793.333 17.6667L800 21L793.333 24.3333L790 31L786.667 24.3333L780 21L786.667 17.6667L790 11L793.333 17.6667Z" fill="white"/>
<path fill-rule="evenodd" clip-rule="evenodd" d="M193.333 17.6667L200 21L193.333 24.3333L190 31L186.667 24.3333L180 21L186.667 17.6667L190 11L193.333 17.6667Z" fill="white"/>
<path fill-rule="evenodd" clip-rule="evenodd" d="M1153.33 17.6667L1160 21L1153.33 24.3333L1150 31L1146.67 24.3333L1140 21L1146.67 17.6667L1150 11L1153.33 17.6667Z" fill="white"/>
<path fill-rule="evenodd" clip-rule="evenodd" d="M673.333 17.6667L680 21L673.333 24.3333L670 31L666.667 24.3333L660 21L666.667 17.6667L670 11L673.333 17.6667Z" fill="white"/>
<path fill-rule="evenodd" clip-rule="evenodd" d="M433.333 17.6667L440 21L433.333 24.3333L430 31L426.667 24.3333L420 21L426.667 17.6667L430 11L433.333 17.6667Z" fill="white"/>
<path fill-rule="evenodd" clip-rule="evenodd" d="M913.333 17.6667L920 21L913.333 24.3333L910 31L906.667 24.3333L900 21L906.667 17.6667L910 11L913.333 17.6667Z" fill="white"/>
<path fill-rule="evenodd" clip-rule="evenodd" d="M13.3333 257.667L20 261L13.3333 264.333L10 271L6.66667 264.333L0 261L6.66667 257.667L10 251L13.3333 257.667Z" fill="white"/>
<path fill-rule="evenodd" clip-rule="evenodd" d="M973.333 257.667L980 261L973.333 264.333L970 271L966.667 264.333L960 261L966.667 257.667L970 251L973.333 257.667Z" fill="white"/>
<path fill-rule="evenodd" clip-rule="evenodd" d="M493.333 257.667L500 261L493.333 264.333L490 271L486.667 264.333L480 261L486.667 257.667L490 251L493.333 257.667Z" fill="white"/>
<path fill-rule="evenodd" clip-rule="evenodd" d="M253.333 257.667L260 261L253.333 264.333L250 271L246.667 264.333L240 261L246.667 257.667L250 251L253.333 257.667Z" fill="white"/>
<path fill-rule="evenodd" clip-rule="evenodd" d="M1213.33 257.667L1220 261L1213.33 264.333L1210 271L1206.67 264.333L1200 261L1206.67 257.667L1210 251L1213.33 257.667Z" fill="white"/>
<path fill-rule="evenodd" clip-rule="evenodd" d="M733.333 257.667L740 261L733.333 264.333L730 271L726.667 264.333L720 261L726.667 257.667L730 251L733.333 257.667Z" fill="white"/>
<path fill-rule="evenodd" clip-rule="evenodd" d="M133.333 257.667L140 261L133.333 264.333L130 271L126.667 264.333L120 261L126.667 257.667L130 251L133.333 257.667Z" fill="white"/>
<path fill-rule="evenodd" clip-rule="evenodd" d="M1093.33 257.667L1100 261L1093.33 264.333L1090 271L1086.67 264.333L1080 261L1086.67 257.667L1090 251L1093.33 257.667Z" fill="white"/>
<path fill-rule="evenodd" clip-rule="evenodd" d="M613.333 257.667L620 261L613.333 264.333L610 271L606.667 264.333L600 261L606.667 257.667L610 251L613.333 257.667Z" fill="white"/>
<path fill-rule="evenodd" clip-rule="evenodd" d="M373.333 257.667L380 261L373.333 264.333L370 271L366.667 264.333L360 261L366.667 257.667L370 251L373.333 257.667Z" fill="white"/>
<path fill-rule="evenodd" clip-rule="evenodd" d="M853.333 257.667L860 261L853.333 264.333L850 271L846.667 264.333L840 261L846.667 257.667L850 251L853.333 257.667Z" fill="white"/>
<path fill-rule="evenodd" clip-rule="evenodd" d="M73.3333 257.667L80 261L73.3333 264.333L70 271L66.6667 264.333L60 261L66.6667 257.667L70 251L73.3333 257.667Z" fill="white"/>
<path fill-rule="evenodd" clip-rule="evenodd" d="M1033.33 257.667L1040 261L1033.33 264.333L1030 271L1026.67 264.333L1020 261L1026.67 257.667L1030 251L1033.33 257.667Z" fill="white"/>
<path fill-rule="evenodd" clip-rule="evenodd" d="M553.333 257.667L560 261L553.333 264.333L550 271L546.667 264.333L540 261L546.667 257.667L550 251L553.333 257.667Z" fill="white"/>
<path fill-rule="evenodd" clip-rule="evenodd" d="M313.333 257.667L320 261L313.333 264.333L310 271L306.667 264.333L300 261L306.667 257.667L310 251L313.333 257.667Z" fill="white"/>
<path fill-rule="evenodd" clip-rule="evenodd" d="M1273.33 257.667L1280 261L1273.33 264.333L1270 271L1266.67 264.333L1260 261L1266.67 257.667L1270 251L1273.33 257.667Z" fill="white"/>
<path fill-rule="evenodd" clip-rule="evenodd" d="M793.333 257.667L800 261L793.333 264.333L790 271L786.667 264.333L780 261L786.667 257.667L790 251L793.333 257.667Z" fill="white"/>
<path fill-rule="evenodd" clip-rule="evenodd" d="M193.333 257.667L200 261L193.333 264.333L190 271L186.667 264.333L180 261L186.667 257.667L190 251L193.333 257.667Z" fill="white"/>
<path fill-rule="evenodd" clip-rule="evenodd" d="M1153.33 257.667L1160 261L1153.33 264.333L1150 271L1146.67 264.333L1140 261L1146.67 257.667L1150 251L1153.33 257.667Z" fill="white"/>
<path fill-rule="evenodd" clip-rule="evenodd" d="M673.333 257.667L680 261L673.333 264.333L670 271L666.667 264.333L660 261L666.667 257.667L670 251L673.333 257.667Z" fill="white"/>
<path fill-rule="evenodd" clip-rule="evenodd" d="M433.333 257.667L440 261L433.333 264.333L430 271L426.667 264.333L420 261L426.667 257.667L430 251L433.333 257.667Z" fill="white"/>
<path fill-rule="evenodd" clip-rule="evenodd" d="M913.333 257.667L920 261L913.333 264.333L910 271L906.667 264.333L900 261L906.667 257.667L910 251L913.333 257.667Z" fill="white"/>
<path fill-rule="evenodd" clip-rule="evenodd" d="M13.3333 497.667L20 501L13.3333 504.333L10 511L6.66667 504.333L0 501L6.66667 497.667L10 491L13.3333 497.667Z" fill="white"/>
<path fill-rule="evenodd" clip-rule="evenodd" d="M973.333 497.667L980 501L973.333 504.333L970 511L966.667 504.333L960 501L966.667 497.667L970 491L973.333 497.667Z" fill="white"/>
<path fill-rule="evenodd" clip-rule="evenodd" d="M493.333 497.667L500 501L493.333 504.333L490 511L486.667 504.333L480 501L486.667 497.667L490 491L493.333 497.667Z" fill="white"/>
<path fill-rule="evenodd" clip-rule="evenodd" d="M253.333 497.667L260 501L253.333 504.333L250 511L246.667 504.333L240 501L246.667 497.667L250 491L253.333 497.667Z" fill="white"/>
<path fill-rule="evenodd" clip-rule="evenodd" d="M1213.33 497.667L1220 501L1213.33 504.333L1210 511L1206.67 504.333L1200 501L1206.67 497.667L1210 491L1213.33 497.667Z" fill="white"/>
<path fill-rule="evenodd" clip-rule="evenodd" d="M733.333 497.667L740 501L733.333 504.333L730 511L726.667 504.333L720 501L726.667 497.667L730 491L733.333 497.667Z" fill="white"/>
<path fill-rule="evenodd" clip-rule="evenodd" d="M133.333 497.667L140 501L133.333 504.333L130 511L126.667 504.333L120 501L126.667 497.667L130 491L133.333 497.667Z" fill="white"/>
<path fill-rule="evenodd" clip-rule="evenodd" d="M1093.33 497.667L1100 501L1093.33 504.333L1090 511L1086.67 504.333L1080 501L1086.67 497.667L1090 491L1093.33 497.667Z" fill="white"/>
<path fill-rule="evenodd" clip-rule="evenodd" d="M613.333 497.667L620 501L613.333 504.333L610 511L606.667 504.333L600 501L606.667 497.667L610 491L613.333 497.667Z" fill="white"/>
<path fill-rule="evenodd" clip-rule="evenodd" d="M373.333 497.667L380 501L373.333 504.333L370 511L366.667 504.333L360 501L366.667 497.667L370 491L373.333 497.667Z" fill="white"/>
<path fill-rule="evenodd" clip-rule="evenodd" d="M853.333 497.667L860 501L853.333 504.333L850 511L846.667 504.333L840 501L846.667 497.667L850 491L853.333 497.667Z" fill="white"/>
<path fill-rule="evenodd" clip-rule="evenodd" d="M73.3333 497.667L80 501L73.3333 504.333L70 511L66.6667 504.333L60 501L66.6667 497.667L70 491L73.3333 497.667Z" fill="white"/>
<path fill-rule="evenodd" clip-rule="evenodd" d="M1033.33 497.667L1040 501L1033.33 504.333L1030 511L1026.67 504.333L1020 501L1026.67 497.667L1030 491L1033.33 497.667Z" fill="white"/>
<path fill-rule="evenodd" clip-rule="evenodd" d="M553.333 497.667L560 501L553.333 504.333L550 511L546.667 504.333L540 501L546.667 497.667L550 491L553.333 497.667Z" fill="white"/>
<path fill-rule="evenodd" clip-rule="evenodd" d="M313.333 497.667L320 501L313.333 504.333L310 511L306.667 504.333L300 501L306.667 497.667L310 491L313.333 497.667Z" fill="white"/>
<path fill-rule="evenodd" clip-rule="evenodd" d="M1273.33 497.667L1280 501L1273.33 504.333L1270 511L1266.67 504.333L1260 501L1266.67 497.667L1270 491L1273.33 497.667Z" fill="white"/>
<path fill-rule="evenodd" clip-rule="evenodd" d="M793.333 497.667L800 501L793.333 504.333L790 511L786.667 504.333L780 501L786.667 497.667L790 491L793.333 497.667Z" fill="white"/>
<path fill-rule="evenodd" clip-rule="evenodd" d="M193.333 497.667L200 501L193.333 504.333L190 511L186.667 504.333L180 501L186.667 497.667L190 491L193.333 497.667Z" fill="white"/>
<path fill-rule="evenodd" clip-rule="evenodd" d="M1153.33 497.667L1160 501L1153.33 504.333L1150 511L1146.67 504.333L1140 501L1146.67 497.667L1150 491L1153.33 497.667Z" fill="white"/>
<path fill-rule="evenodd" clip-rule="evenodd" d="M673.333 497.667L680 501L673.333 504.333L670 511L666.667 504.333L660 501L666.667 497.667L670 491L673.333 497.667Z" fill="white"/>
<path fill-rule="evenodd" clip-rule="evenodd" d="M433.333 497.667L440 501L433.333 504.333L430 511L426.667 504.333L420 501L426.667 497.667L430 491L433.333 497.667Z" fill="white"/>
<path fill-rule="evenodd" clip-rule="evenodd" d="M913.333 497.667L920 501L913.333 504.333L910 511L906.667 504.333L900 501L906.667 497.667L910 491L913.333 497.667Z" fill="white"/>
<path fill-rule="evenodd" clip-rule="evenodd" d="M13.3333 137.667L20 141L13.3333 144.333L10 151L6.66667 144.333L0 141L6.66667 137.667L10 131L13.3333 137.667Z" fill="white"/>
<path fill-rule="evenodd" clip-rule="evenodd" d="M973.333 137.667L980 141L973.333 144.333L970 151L966.667 144.333L960 141L966.667 137.667L970 131L973.333 137.667Z" fill="white"/>
<path fill-rule="evenodd" clip-rule="evenodd" d="M493.333 137.667L500 141L493.333 144.333L490 151L486.667 144.333L480 141L486.667 137.667L490 131L493.333 137.667Z" fill="white"/>
<path fill-rule="evenodd" clip-rule="evenodd" d="M253.333 137.667L260 141L253.333 144.333L250 151L246.667 144.333L240 141L246.667 137.667L250 131L253.333 137.667Z" fill="white"/>
<path fill-rule="evenodd" clip-rule="evenodd" d="M1213.33 137.667L1220 141L1213.33 144.333L1210 151L1206.67 144.333L1200 141L1206.67 137.667L1210 131L1213.33 137.667Z" fill="white"/>
<path fill-rule="evenodd" clip-rule="evenodd" d="M733.333 137.667L740 141L733.333 144.333L730 151L726.667 144.333L720 141L726.667 137.667L730 131L733.333 137.667Z" fill="white"/>
<path fill-rule="evenodd" clip-rule="evenodd" d="M133.333 137.667L140 141L133.333 144.333L130 151L126.667 144.333L120 141L126.667 137.667L130 131L133.333 137.667Z" fill="white"/>
<path fill-rule="evenodd" clip-rule="evenodd" d="M1093.33 137.667L1100 141L1093.33 144.333L1090 151L1086.67 144.333L1080 141L1086.67 137.667L1090 131L1093.33 137.667Z" fill="white"/>
<path fill-rule="evenodd" clip-rule="evenodd" d="M613.333 137.667L620 141L613.333 144.333L610 151L606.667 144.333L600 141L606.667 137.667L610 131L613.333 137.667Z" fill="white"/>
<path fill-rule="evenodd" clip-rule="evenodd" d="M373.333 137.667L380 141L373.333 144.333L370 151L366.667 144.333L360 141L366.667 137.667L370 131L373.333 137.667Z" fill="white"/>
<path fill-rule="evenodd" clip-rule="evenodd" d="M853.333 137.667L860 141L853.333 144.333L850 151L846.667 144.333L840 141L846.667 137.667L850 131L853.333 137.667Z" fill="white"/>
<path fill-rule="evenodd" clip-rule="evenodd" d="M73.3333 137.667L80 141L73.3333 144.333L70 151L66.6667 144.333L60 141L66.6667 137.667L70 131L73.3333 137.667Z" fill="white"/>
<path fill-rule="evenodd" clip-rule="evenodd" d="M1033.33 137.667L1040 141L1033.33 144.333L1030 151L1026.67 144.333L1020 141L1026.67 137.667L1030 131L1033.33 137.667Z" fill="white"/>
<path fill-rule="evenodd" clip-rule="evenodd" d="M553.333 137.667L560 141L553.333 144.333L550 151L546.667 144.333L540 141L546.667 137.667L550 131L553.333 137.667Z" fill="white"/>
<path fill-rule="evenodd" clip-rule="evenodd" d="M313.333 137.667L320 141L313.333 144.333L310 151L306.667 144.333L300 141L306.667 137.667L310 131L313.333 137.667Z" fill="white"/>
<path fill-rule="evenodd" clip-rule="evenodd" d="M1273.33 137.667L1280 141L1273.33 144.333L1270 151L1266.67 144.333L1260 141L1266.67 137.667L1270 131L1273.33 137.667Z" fill="white"/>
<path fill-rule="evenodd" clip-rule="evenodd" d="M793.333 137.667L800 141L793.333 144.333L790 151L786.667 144.333L780 141L786.667 137.667L790 131L793.333 137.667Z" fill="white"/>
<path fill-rule="evenodd" clip-rule="evenodd" d="M193.333 137.667L200 141L193.333 144.333L190 151L186.667 144.333L180 141L186.667 137.667L190 131L193.333 137.667Z" fill="white"/>
<path fill-rule="evenodd" clip-rule="evenodd" d="M1153.33 137.667L1160 141L1153.33 144.333L1150 151L1146.67 144.333L1140 141L1146.67 137.667L1150 131L1153.33 137.667Z" fill="white"/>
<path fill-rule="evenodd" clip-rule="evenodd" d="M673.333 137.667L680 141L673.333 144.333L670 151L666.667 144.333L660 141L666.667 137.667L670 131L673.333 137.667Z" fill="white"/>
<path fill-rule="evenodd" clip-rule="evenodd" d="M433.333 137.667L440 141L433.333 144.333L430 151L426.667 144.333L420 141L426.667 137.667L430 131L433.333 137.667Z" fill="white"/>
<path fill-rule="evenodd" clip-rule="evenodd" d="M913.333 137.667L920 141L913.333 144.333L910 151L906.667 144.333L900 141L906.667 137.667L910 131L913.333 137.667Z" fill="white"/>
<path fill-rule="evenodd" clip-rule="evenodd" d="M13.3333 377.667L20 381L13.3333 384.333L10 391L6.66667 384.333L0 381L6.66667 377.667L10 371L13.3333 377.667Z" fill="white"/>
<path fill-rule="evenodd" clip-rule="evenodd" d="M973.333 377.667L980 381L973.333 384.333L970 391L966.667 384.333L960 381L966.667 377.667L970 371L973.333 377.667Z" fill="white"/>
<path fill-rule="evenodd" clip-rule="evenodd" d="M493.333 377.667L500 381L493.333 384.333L490 391L486.667 384.333L480 381L486.667 377.667L490 371L493.333 377.667Z" fill="white"/>
<path fill-rule="evenodd" clip-rule="evenodd" d="M253.333 377.667L260 381L253.333 384.333L250 391L246.667 384.333L240 381L246.667 377.667L250 371L253.333 377.667Z" fill="white"/>
<path fill-rule="evenodd" clip-rule="evenodd" d="M1213.33 377.667L1220 381L1213.33 384.333L1210 391L1206.67 384.333L1200 381L1206.67 377.667L1210 371L1213.33 377.667Z" fill="white"/>
<path fill-rule="evenodd" clip-rule="evenodd" d="M733.333 377.667L740 381L733.333 384.333L730 391L726.667 384.333L720 381L726.667 377.667L730 371L733.333 377.667Z" fill="white"/>
<path fill-rule="evenodd" clip-rule="evenodd" d="M133.333 377.667L140 381L133.333 384.333L130 391L126.667 384.333L120 381L126.667 377.667L130 371L133.333 377.667Z" fill="white"/>
<path fill-rule="evenodd" clip-rule="evenodd" d="M1093.33 377.667L1100 381L1093.33 384.333L1090 391L1086.67 384.333L1080 381L1086.67 377.667L1090 371L1093.33 377.667Z" fill="white"/>
<path fill-rule="evenodd" clip-rule="evenodd" d="M613.333 377.667L620 381L613.333 384.333L610 391L606.667 384.333L600 381L606.667 377.667L610 371L613.333 377.667Z" fill="white"/>
<path fill-rule="evenodd" clip-rule="evenodd" d="M373.333 377.667L380 381L373.333 384.333L370 391L366.667 384.333L360 381L366.667 377.667L370 371L373.333 377.667Z" fill="white"/>
<path fill-rule="evenodd" clip-rule="evenodd" d="M853.333 377.667L860 381L853.333 384.333L850 391L846.667 384.333L840 381L846.667 377.667L850 371L853.333 377.667Z" fill="white"/>
<path fill-rule="evenodd" clip-rule="evenodd" d="M73.3333 377.667L80 381L73.3333 384.333L70 391L66.6667 384.333L60 381L66.6667 377.667L70 371L73.3333 377.667Z" fill="white"/>
<path fill-rule="evenodd" clip-rule="evenodd" d="M1033.33 377.667L1040 381L1033.33 384.333L1030 391L1026.67 384.333L1020 381L1026.67 377.667L1030 371L1033.33 377.667Z" fill="white"/>
<path fill-rule="evenodd" clip-rule="evenodd" d="M553.333 377.667L560 381L553.333 384.333L550 391L546.667 384.333L540 381L546.667 377.667L550 371L553.333 377.667Z" fill="white"/>
<path fill-rule="evenodd" clip-rule="evenodd" d="M313.333 377.667L320 381L313.333 384.333L310 391L306.667 384.333L300 381L306.667 377.667L310 371L313.333 377.667Z" fill="white"/>
<path fill-rule="evenodd" clip-rule="evenodd" d="M1273.33 377.667L1280 381L1273.33 384.333L1270 391L1266.67 384.333L1260 381L1266.67 377.667L1270 371L1273.33 377.667Z" fill="white"/>
<path fill-rule="evenodd" clip-rule="evenodd" d="M793.333 377.667L800 381L793.333 384.333L790 391L786.667 384.333L780 381L786.667 377.667L790 371L793.333 377.667Z" fill="white"/>
<path fill-rule="evenodd" clip-rule="evenodd" d="M193.333 377.667L200 381L193.333 384.333L190 391L186.667 384.333L180 381L186.667 377.667L190 371L193.333 377.667Z" fill="white"/>
<path fill-rule="evenodd" clip-rule="evenodd" d="M1153.33 377.667L1160 381L1153.33 384.333L1150 391L1146.67 384.333L1140 381L1146.67 377.667L1150 371L1153.33 377.667Z" fill="white"/>
<path fill-rule="evenodd" clip-rule="evenodd" d="M673.333 377.667L680 381L673.333 384.333L670 391L666.667 384.333L660 381L666.667 377.667L670 371L673.333 377.667Z" fill="white"/>
<path fill-rule="evenodd" clip-rule="evenodd" d="M433.333 377.667L440 381L433.333 384.333L430 391L426.667 384.333L420 381L426.667 377.667L430 371L433.333 377.667Z" fill="white"/>
<path fill-rule="evenodd" clip-rule="evenodd" d="M913.333 377.667L920 381L913.333 384.333L910 391L906.667 384.333L900 381L906.667 377.667L910 371L913.333 377.667Z" fill="white"/>
<path fill-rule="evenodd" clip-rule="evenodd" d="M13.3333 617.667L20 621L13.3333 624.333L10 631L6.66667 624.333L0 621L6.66667 617.667L10 611L13.3333 617.667Z" fill="white"/>
<path fill-rule="evenodd" clip-rule="evenodd" d="M973.333 617.667L980 621L973.333 624.333L970 631L966.667 624.333L960 621L966.667 617.667L970 611L973.333 617.667Z" fill="white"/>
<path fill-rule="evenodd" clip-rule="evenodd" d="M493.333 617.667L500 621L493.333 624.333L490 631L486.667 624.333L480 621L486.667 617.667L490 611L493.333 617.667Z" fill="white"/>
<path fill-rule="evenodd" clip-rule="evenodd" d="M253.333 617.667L260 621L253.333 624.333L250 631L246.667 624.333L240 621L246.667 617.667L250 611L253.333 617.667Z" fill="white"/>
<path fill-rule="evenodd" clip-rule="evenodd" d="M1213.33 617.667L1220 621L1213.33 624.333L1210 631L1206.67 624.333L1200 621L1206.67 617.667L1210 611L1213.33 617.667Z" fill="white"/>
<path fill-rule="evenodd" clip-rule="evenodd" d="M733.333 617.667L740 621L733.333 624.333L730 631L726.667 624.333L720 621L726.667 617.667L730 611L733.333 617.667Z" fill="white"/>
<path fill-rule="evenodd" clip-rule="evenodd" d="M133.333 617.667L140 621L133.333 624.333L130 631L126.667 624.333L120 621L126.667 617.667L130 611L133.333 617.667Z" fill="white"/>
<path fill-rule="evenodd" clip-rule="evenodd" d="M1093.33 617.667L1100 621L1093.33 624.333L1090 631L1086.67 624.333L1080 621L1086.67 617.667L1090 611L1093.33 617.667Z" fill="white"/>
<path fill-rule="evenodd" clip-rule="evenodd" d="M613.333 617.667L620 621L613.333 624.333L610 631L606.667 624.333L600 621L606.667 617.667L610 611L613.333 617.667Z" fill="white"/>
<path fill-rule="evenodd" clip-rule="evenodd" d="M373.333 617.667L380 621L373.333 624.333L370 631L366.667 624.333L360 621L366.667 617.667L370 611L373.333 617.667Z" fill="white"/>
<path fill-rule="evenodd" clip-rule="evenodd" d="M853.333 617.667L860 621L853.333 624.333L850 631L846.667 624.333L840 621L846.667 617.667L850 611L853.333 617.667Z" fill="white"/>
<path fill-rule="evenodd" clip-rule="evenodd" d="M73.3333 617.667L80 621L73.3333 624.333L70 631L66.6667 624.333L60 621L66.6667 617.667L70 611L73.3333 617.667Z" fill="white"/>
<path fill-rule="evenodd" clip-rule="evenodd" d="M1033.33 617.667L1040 621L1033.33 624.333L1030 631L1026.67 624.333L1020 621L1026.67 617.667L1030 611L1033.33 617.667Z" fill="white"/>
<path fill-rule="evenodd" clip-rule="evenodd" d="M553.333 617.667L560 621L553.333 624.333L550 631L546.667 624.333L540 621L546.667 617.667L550 611L553.333 617.667Z" fill="white"/>
<path fill-rule="evenodd" clip-rule="evenodd" d="M313.333 617.667L320 621L313.333 624.333L310 631L306.667 624.333L300 621L306.667 617.667L310 611L313.333 617.667Z" fill="white"/>
<path fill-rule="evenodd" clip-rule="evenodd" d="M1273.33 617.667L1280 621L1273.33 624.333L1270 631L1266.67 624.333L1260 621L1266.67 617.667L1270 611L1273.33 617.667Z" fill="white"/>
<path fill-rule="evenodd" clip-rule="evenodd" d="M793.333 617.667L800 621L793.333 624.333L790 631L786.667 624.333L780 621L786.667 617.667L790 611L793.333 617.667Z" fill="white"/>
<path fill-rule="evenodd" clip-rule="evenodd" d="M193.333 617.667L200 621L193.333 624.333L190 631L186.667 624.333L180 621L186.667 617.667L190 611L193.333 617.667Z" fill="white"/>
<path fill-rule="evenodd" clip-rule="evenodd" d="M1153.33 617.667L1160 621L1153.33 624.333L1150 631L1146.67 624.333L1140 621L1146.67 617.667L1150 611L1153.33 617.667Z" fill="white"/>
<path fill-rule="evenodd" clip-rule="evenodd" d="M673.333 617.667L680 621L673.333 624.333L670 631L666.667 624.333L660 621L666.667 617.667L670 611L673.333 617.667Z" fill="white"/>
<path fill-rule="evenodd" clip-rule="evenodd" d="M433.333 617.667L440 621L433.333 624.333L430 631L426.667 624.333L420 621L426.667 617.667L430 611L433.333 617.667Z" fill="white"/>
<path fill-rule="evenodd" clip-rule="evenodd" d="M913.333 617.667L920 621L913.333 624.333L910 631L906.667 624.333L900 621L906.667 617.667L910 611L913.333 617.667Z" fill="white"/>
<path fill-rule="evenodd" clip-rule="evenodd" d="M13.3333 77.6667L20 81L13.3333 84.3333L10 91L6.66667 84.3333L0 81L6.66667 77.6667L10 71L13.3333 77.6667Z" fill="white"/>
<path fill-rule="evenodd" clip-rule="evenodd" d="M973.333 77.6667L980 81L973.333 84.3333L970 91L966.667 84.3333L960 81L966.667 77.6667L970 71L973.333 77.6667Z" fill="white"/>
<path fill-rule="evenodd" clip-rule="evenodd" d="M493.333 77.6667L500 81L493.333 84.3333L490 91L486.667 84.3333L480 81L486.667 77.6667L490 71L493.333 77.6667Z" fill="white"/>
<path fill-rule="evenodd" clip-rule="evenodd" d="M253.333 77.6667L260 81L253.333 84.3333L250 91L246.667 84.3333L240 81L246.667 77.6667L250 71L253.333 77.6667Z" fill="white"/>
<path fill-rule="evenodd" clip-rule="evenodd" d="M1213.33 77.6667L1220 81L1213.33 84.3333L1210 91L1206.67 84.3333L1200 81L1206.67 77.6667L1210 71L1213.33 77.6667Z" fill="white"/>
<path fill-rule="evenodd" clip-rule="evenodd" d="M733.333 77.6667L740 81L733.333 84.3333L730 91L726.667 84.3333L720 81L726.667 77.6667L730 71L733.333 77.6667Z" fill="white"/>
<path fill-rule="evenodd" clip-rule="evenodd" d="M133.333 77.6667L140 81L133.333 84.3333L130 91L126.667 84.3333L120 81L126.667 77.6667L130 71L133.333 77.6667Z" fill="white"/>
<path fill-rule="evenodd" clip-rule="evenodd" d="M1093.33 77.6667L1100 81L1093.33 84.3333L1090 91L1086.67 84.3333L1080 81L1086.67 77.6667L1090 71L1093.33 77.6667Z" fill="white"/>
<path fill-rule="evenodd" clip-rule="evenodd" d="M613.333 77.6667L620 81L613.333 84.3333L610 91L606.667 84.3333L600 81L606.667 77.6667L610 71L613.333 77.6667Z" fill="white"/>
<path fill-rule="evenodd" clip-rule="evenodd" d="M373.333 77.6667L380 81L373.333 84.3333L370 91L366.667 84.3333L360 81L366.667 77.6667L370 71L373.333 77.6667Z" fill="white"/>
<path fill-rule="evenodd" clip-rule="evenodd" d="M853.333 77.6667L860 81L853.333 84.3333L850 91L846.667 84.3333L840 81L846.667 77.6667L850 71L853.333 77.6667Z" fill="white"/>
<path fill-rule="evenodd" clip-rule="evenodd" d="M73.3333 77.6667L80 81L73.3333 84.3333L70 91L66.6667 84.3333L60 81L66.6667 77.6667L70 71L73.3333 77.6667Z" fill="white"/>
<path fill-rule="evenodd" clip-rule="evenodd" d="M1033.33 77.6667L1040 81L1033.33 84.3333L1030 91L1026.67 84.3333L1020 81L1026.67 77.6667L1030 71L1033.33 77.6667Z" fill="white"/>
<path fill-rule="evenodd" clip-rule="evenodd" d="M553.333 77.6667L560 81L553.333 84.3333L550 91L546.667 84.3333L540 81L546.667 77.6667L550 71L553.333 77.6667Z" fill="white"/>
<path fill-rule="evenodd" clip-rule="evenodd" d="M313.333 77.6667L320 81L313.333 84.3333L310 91L306.667 84.3333L300 81L306.667 77.6667L310 71L313.333 77.6667Z" fill="white"/>
<path fill-rule="evenodd" clip-rule="evenodd" d="M1273.33 77.6667L1280 81L1273.33 84.3333L1270 91L1266.67 84.3333L1260 81L1266.67 77.6667L1270 71L1273.33 77.6667Z" fill="white"/>
<path fill-rule="evenodd" clip-rule="evenodd" d="M793.333 77.6667L800 81L793.333 84.3333L790 91L786.667 84.3333L780 81L786.667 77.6667L790 71L793.333 77.6667Z" fill="white"/>
<path fill-rule="evenodd" clip-rule="evenodd" d="M193.333 77.6667L200 81L193.333 84.3333L190 91L186.667 84.3333L180 81L186.667 77.6667L190 71L193.333 77.6667Z" fill="white"/>
<path fill-rule="evenodd" clip-rule="evenodd" d="M1153.33 77.6667L1160 81L1153.33 84.3333L1150 91L1146.67 84.3333L1140 81L1146.67 77.6667L1150 71L1153.33 77.6667Z" fill="white"/>
<path fill-rule="evenodd" clip-rule="evenodd" d="M673.333 77.6667L680 81L673.333 84.3333L670 91L666.667 84.3333L660 81L666.667 77.6667L670 71L673.333 77.6667Z" fill="white"/>
<path fill-rule="evenodd" clip-rule="evenodd" d="M433.333 77.6667L440 81L433.333 84.3333L430 91L426.667 84.3333L420 81L426.667 77.6667L430 71L433.333 77.6667Z" fill="white"/>
<path fill-rule="evenodd" clip-rule="evenodd" d="M913.333 77.6667L920 81L913.333 84.3333L910 91L906.667 84.3333L900 81L906.667 77.6667L910 71L913.333 77.6667Z" fill="white"/>
<path fill-rule="evenodd" clip-rule="evenodd" d="M13.3333 317.667L20 321L13.3333 324.333L10 331L6.66667 324.333L0 321L6.66667 317.667L10 311L13.3333 317.667Z" fill="white"/>
<path fill-rule="evenodd" clip-rule="evenodd" d="M973.333 317.667L980 321L973.333 324.333L970 331L966.667 324.333L960 321L966.667 317.667L970 311L973.333 317.667Z" fill="white"/>
<path fill-rule="evenodd" clip-rule="evenodd" d="M493.333 317.667L500 321L493.333 324.333L490 331L486.667 324.333L480 321L486.667 317.667L490 311L493.333 317.667Z" fill="white"/>
<path fill-rule="evenodd" clip-rule="evenodd" d="M253.333 317.667L260 321L253.333 324.333L250 331L246.667 324.333L240 321L246.667 317.667L250 311L253.333 317.667Z" fill="white"/>
<path fill-rule="evenodd" clip-rule="evenodd" d="M1213.33 317.667L1220 321L1213.33 324.333L1210 331L1206.67 324.333L1200 321L1206.67 317.667L1210 311L1213.33 317.667Z" fill="white"/>
<path fill-rule="evenodd" clip-rule="evenodd" d="M733.333 317.667L740 321L733.333 324.333L730 331L726.667 324.333L720 321L726.667 317.667L730 311L733.333 317.667Z" fill="white"/>
<path fill-rule="evenodd" clip-rule="evenodd" d="M133.333 317.667L140 321L133.333 324.333L130 331L126.667 324.333L120 321L126.667 317.667L130 311L133.333 317.667Z" fill="white"/>
<path fill-rule="evenodd" clip-rule="evenodd" d="M1093.33 317.667L1100 321L1093.33 324.333L1090 331L1086.67 324.333L1080 321L1086.67 317.667L1090 311L1093.33 317.667Z" fill="white"/>
<path fill-rule="evenodd" clip-rule="evenodd" d="M613.333 317.667L620 321L613.333 324.333L610 331L606.667 324.333L600 321L606.667 317.667L610 311L613.333 317.667Z" fill="white"/>
<path fill-rule="evenodd" clip-rule="evenodd" d="M373.333 317.667L380 321L373.333 324.333L370 331L366.667 324.333L360 321L366.667 317.667L370 311L373.333 317.667Z" fill="white"/>
<path fill-rule="evenodd" clip-rule="evenodd" d="M853.333 317.667L860 321L853.333 324.333L850 331L846.667 324.333L840 321L846.667 317.667L850 311L853.333 317.667Z" fill="white"/>
<path fill-rule="evenodd" clip-rule="evenodd" d="M73.3333 317.667L80 321L73.3333 324.333L70 331L66.6667 324.333L60 321L66.6667 317.667L70 311L73.3333 317.667Z" fill="white"/>
<path fill-rule="evenodd" clip-rule="evenodd" d="M1033.33 317.667L1040 321L1033.33 324.333L1030 331L1026.67 324.333L1020 321L1026.67 317.667L1030 311L1033.33 317.667Z" fill="white"/>
<path fill-rule="evenodd" clip-rule="evenodd" d="M553.333 317.667L560 321L553.333 324.333L550 331L546.667 324.333L540 321L546.667 317.667L550 311L553.333 317.667Z" fill="white"/>
<path fill-rule="evenodd" clip-rule="evenodd" d="M313.333 317.667L320 321L313.333 324.333L310 331L306.667 324.333L300 321L306.667 317.667L310 311L313.333 317.667Z" fill="white"/>
<path fill-rule="evenodd" clip-rule="evenodd" d="M1273.33 317.667L1280 321L1273.33 324.333L1270 331L1266.67 324.333L1260 321L1266.67 317.667L1270 311L1273.33 317.667Z" fill="white"/>
<path fill-rule="evenodd" clip-rule="evenodd" d="M793.333 317.667L800 321L793.333 324.333L790 331L786.667 324.333L780 321L786.667 317.667L790 311L793.333 317.667Z" fill="white"/>
<path fill-rule="evenodd" clip-rule="evenodd" d="M193.333 317.667L200 321L193.333 324.333L190 331L186.667 324.333L180 321L186.667 317.667L190 311L193.333 317.667Z" fill="white"/>
<path fill-rule="evenodd" clip-rule="evenodd" d="M1153.33 317.667L1160 321L1153.33 324.333L1150 331L1146.67 324.333L1140 321L1146.67 317.667L1150 311L1153.33 317.667Z" fill="white"/>
<path fill-rule="evenodd" clip-rule="evenodd" d="M673.333 317.667L680 321L673.333 324.333L670 331L666.667 324.333L660 321L666.667 317.667L670 311L673.333 317.667Z" fill="white"/>
<path fill-rule="evenodd" clip-rule="evenodd" d="M433.333 317.667L440 321L433.333 324.333L430 331L426.667 324.333L420 321L426.667 317.667L430 311L433.333 317.667Z" fill="white"/>
<path fill-rule="evenodd" clip-rule="evenodd" d="M913.333 317.667L920 321L913.333 324.333L910 331L906.667 324.333L900 321L906.667 317.667L910 311L913.333 317.667Z" fill="white"/>
<path fill-rule="evenodd" clip-rule="evenodd" d="M13.3333 557.667L20 561L13.3333 564.333L10 571L6.66667 564.333L0 561L6.66667 557.667L10 551L13.3333 557.667Z" fill="white"/>
<path fill-rule="evenodd" clip-rule="evenodd" d="M973.333 557.667L980 561L973.333 564.333L970 571L966.667 564.333L960 561L966.667 557.667L970 551L973.333 557.667Z" fill="white"/>
<path fill-rule="evenodd" clip-rule="evenodd" d="M493.333 557.667L500 561L493.333 564.333L490 571L486.667 564.333L480 561L486.667 557.667L490 551L493.333 557.667Z" fill="white"/>
<path fill-rule="evenodd" clip-rule="evenodd" d="M253.333 557.667L260 561L253.333 564.333L250 571L246.667 564.333L240 561L246.667 557.667L250 551L253.333 557.667Z" fill="white"/>
<path fill-rule="evenodd" clip-rule="evenodd" d="M1213.33 557.667L1220 561L1213.33 564.333L1210 571L1206.67 564.333L1200 561L1206.67 557.667L1210 551L1213.33 557.667Z" fill="white"/>
<path fill-rule="evenodd" clip-rule="evenodd" d="M733.333 557.667L740 561L733.333 564.333L730 571L726.667 564.333L720 561L726.667 557.667L730 551L733.333 557.667Z" fill="white"/>
<path fill-rule="evenodd" clip-rule="evenodd" d="M133.333 557.667L140 561L133.333 564.333L130 571L126.667 564.333L120 561L126.667 557.667L130 551L133.333 557.667Z" fill="white"/>
<path fill-rule="evenodd" clip-rule="evenodd" d="M1093.33 557.667L1100 561L1093.33 564.333L1090 571L1086.67 564.333L1080 561L1086.67 557.667L1090 551L1093.33 557.667Z" fill="white"/>
<path fill-rule="evenodd" clip-rule="evenodd" d="M613.333 557.667L620 561L613.333 564.333L610 571L606.667 564.333L600 561L606.667 557.667L610 551L613.333 557.667Z" fill="white"/>
<path fill-rule="evenodd" clip-rule="evenodd" d="M373.333 557.667L380 561L373.333 564.333L370 571L366.667 564.333L360 561L366.667 557.667L370 551L373.333 557.667Z" fill="white"/>
<path fill-rule="evenodd" clip-rule="evenodd" d="M853.333 557.667L860 561L853.333 564.333L850 571L846.667 564.333L840 561L846.667 557.667L850 551L853.333 557.667Z" fill="white"/>
<path fill-rule="evenodd" clip-rule="evenodd" d="M73.3333 557.667L80 561L73.3333 564.333L70 571L66.6667 564.333L60 561L66.6667 557.667L70 551L73.3333 557.667Z" fill="white"/>
<path fill-rule="evenodd" clip-rule="evenodd" d="M1033.33 557.667L1040 561L1033.33 564.333L1030 571L1026.67 564.333L1020 561L1026.67 557.667L1030 551L1033.33 557.667Z" fill="white"/>
<path fill-rule="evenodd" clip-rule="evenodd" d="M553.333 557.667L560 561L553.333 564.333L550 571L546.667 564.333L540 561L546.667 557.667L550 551L553.333 557.667Z" fill="white"/>
<path fill-rule="evenodd" clip-rule="evenodd" d="M313.333 557.667L320 561L313.333 564.333L310 571L306.667 564.333L300 561L306.667 557.667L310 551L313.333 557.667Z" fill="white"/>
<path fill-rule="evenodd" clip-rule="evenodd" d="M1273.33 557.667L1280 561L1273.33 564.333L1270 571L1266.67 564.333L1260 561L1266.67 557.667L1270 551L1273.33 557.667Z" fill="white"/>
<path fill-rule="evenodd" clip-rule="evenodd" d="M793.333 557.667L800 561L793.333 564.333L790 571L786.667 564.333L780 561L786.667 557.667L790 551L793.333 557.667Z" fill="white"/>
<path fill-rule="evenodd" clip-rule="evenodd" d="M193.333 557.667L200 561L193.333 564.333L190 571L186.667 564.333L180 561L186.667 557.667L190 551L193.333 557.667Z" fill="white"/>
<path fill-rule="evenodd" clip-rule="evenodd" d="M1153.33 557.667L1160 561L1153.33 564.333L1150 571L1146.67 564.333L1140 561L1146.67 557.667L1150 551L1153.33 557.667Z" fill="white"/>
<path fill-rule="evenodd" clip-rule="evenodd" d="M673.333 557.667L680 561L673.333 564.333L670 571L666.667 564.333L660 561L666.667 557.667L670 551L673.333 557.667Z" fill="white"/>
<path fill-rule="evenodd" clip-rule="evenodd" d="M433.333 557.667L440 561L433.333 564.333L430 571L426.667 564.333L420 561L426.667 557.667L430 551L433.333 557.667Z" fill="white"/>
<path fill-rule="evenodd" clip-rule="evenodd" d="M913.333 557.667L920 561L913.333 564.333L910 571L906.667 564.333L900 561L906.667 557.667L910 551L913.333 557.667Z" fill="white"/>
<path fill-rule="evenodd" clip-rule="evenodd" d="M13.3333 197.667L20 201L13.3333 204.333L10 211L6.66667 204.333L0 201L6.66667 197.667L10 191L13.3333 197.667Z" fill="white"/>
<path fill-rule="evenodd" clip-rule="evenodd" d="M973.333 197.667L980 201L973.333 204.333L970 211L966.667 204.333L960 201L966.667 197.667L970 191L973.333 197.667Z" fill="white"/>
<path fill-rule="evenodd" clip-rule="evenodd" d="M493.333 197.667L500 201L493.333 204.333L490 211L486.667 204.333L480 201L486.667 197.667L490 191L493.333 197.667Z" fill="white"/>
<path fill-rule="evenodd" clip-rule="evenodd" d="M253.333 197.667L260 201L253.333 204.333L250 211L246.667 204.333L240 201L246.667 197.667L250 191L253.333 197.667Z" fill="white"/>
<path fill-rule="evenodd" clip-rule="evenodd" d="M1213.33 197.667L1220 201L1213.33 204.333L1210 211L1206.67 204.333L1200 201L1206.67 197.667L1210 191L1213.33 197.667Z" fill="white"/>
<path fill-rule="evenodd" clip-rule="evenodd" d="M733.333 197.667L740 201L733.333 204.333L730 211L726.667 204.333L720 201L726.667 197.667L730 191L733.333 197.667Z" fill="white"/>
<path fill-rule="evenodd" clip-rule="evenodd" d="M133.333 197.667L140 201L133.333 204.333L130 211L126.667 204.333L120 201L126.667 197.667L130 191L133.333 197.667Z" fill="white"/>
<path fill-rule="evenodd" clip-rule="evenodd" d="M1093.33 197.667L1100 201L1093.33 204.333L1090 211L1086.67 204.333L1080 201L1086.67 197.667L1090 191L1093.33 197.667Z" fill="white"/>
<path fill-rule="evenodd" clip-rule="evenodd" d="M613.333 197.667L620 201L613.333 204.333L610 211L606.667 204.333L600 201L606.667 197.667L610 191L613.333 197.667Z" fill="white"/>
<path fill-rule="evenodd" clip-rule="evenodd" d="M373.333 197.667L380 201L373.333 204.333L370 211L366.667 204.333L360 201L366.667 197.667L370 191L373.333 197.667Z" fill="white"/>
<path fill-rule="evenodd" clip-rule="evenodd" d="M853.333 197.667L860 201L853.333 204.333L850 211L846.667 204.333L840 201L846.667 197.667L850 191L853.333 197.667Z" fill="white"/>
<path fill-rule="evenodd" clip-rule="evenodd" d="M73.3333 197.667L80 201L73.3333 204.333L70 211L66.6667 204.333L60 201L66.6667 197.667L70 191L73.3333 197.667Z" fill="white"/>
<path fill-rule="evenodd" clip-rule="evenodd" d="M1033.33 197.667L1040 201L1033.33 204.333L1030 211L1026.67 204.333L1020 201L1026.67 197.667L1030 191L1033.33 197.667Z" fill="white"/>
<path fill-rule="evenodd" clip-rule="evenodd" d="M553.333 197.667L560 201L553.333 204.333L550 211L546.667 204.333L540 201L546.667 197.667L550 191L553.333 197.667Z" fill="white"/>
<path fill-rule="evenodd" clip-rule="evenodd" d="M313.333 197.667L320 201L313.333 204.333L310 211L306.667 204.333L300 201L306.667 197.667L310 191L313.333 197.667Z" fill="white"/>
<path fill-rule="evenodd" clip-rule="evenodd" d="M1273.33 197.667L1280 201L1273.33 204.333L1270 211L1266.67 204.333L1260 201L1266.67 197.667L1270 191L1273.33 197.667Z" fill="white"/>
<path fill-rule="evenodd" clip-rule="evenodd" d="M793.333 197.667L800 201L793.333 204.333L790 211L786.667 204.333L780 201L786.667 197.667L790 191L793.333 197.667Z" fill="white"/>
<path fill-rule="evenodd" clip-rule="evenodd" d="M193.333 197.667L200 201L193.333 204.333L190 211L186.667 204.333L180 201L186.667 197.667L190 191L193.333 197.667Z" fill="white"/>
<path fill-rule="evenodd" clip-rule="evenodd" d="M1153.33 197.667L1160 201L1153.33 204.333L1150 211L1146.67 204.333L1140 201L1146.67 197.667L1150 191L1153.33 197.667Z" fill="white"/>
<path fill-rule="evenodd" clip-rule="evenodd" d="M673.333 197.667L680 201L673.333 204.333L670 211L666.667 204.333L660 201L666.667 197.667L670 191L673.333 197.667Z" fill="white"/>
<path fill-rule="evenodd" clip-rule="evenodd" d="M433.333 197.667L440 201L433.333 204.333L430 211L426.667 204.333L420 201L426.667 197.667L430 191L433.333 197.667Z" fill="white"/>
<path fill-rule="evenodd" clip-rule="evenodd" d="M913.333 197.667L920 201L913.333 204.333L910 211L906.667 204.333L900 201L906.667 197.667L910 191L913.333 197.667Z" fill="white"/>
<path fill-rule="evenodd" clip-rule="evenodd" d="M13.3333 437.667L20 441L13.3333 444.333L10 451L6.66667 444.333L0 441L6.66667 437.667L10 431L13.3333 437.667Z" fill="white"/>
<path fill-rule="evenodd" clip-rule="evenodd" d="M973.333 437.667L980 441L973.333 444.333L970 451L966.667 444.333L960 441L966.667 437.667L970 431L973.333 437.667Z" fill="white"/>
<path fill-rule="evenodd" clip-rule="evenodd" d="M493.333 437.667L500 441L493.333 444.333L490 451L486.667 444.333L480 441L486.667 437.667L490 431L493.333 437.667Z" fill="white"/>
<path fill-rule="evenodd" clip-rule="evenodd" d="M253.333 437.667L260 441L253.333 444.333L250 451L246.667 444.333L240 441L246.667 437.667L250 431L253.333 437.667Z" fill="white"/>
<path fill-rule="evenodd" clip-rule="evenodd" d="M1213.33 437.667L1220 441L1213.33 444.333L1210 451L1206.67 444.333L1200 441L1206.67 437.667L1210 431L1213.33 437.667Z" fill="white"/>
<path fill-rule="evenodd" clip-rule="evenodd" d="M733.333 437.667L740 441L733.333 444.333L730 451L726.667 444.333L720 441L726.667 437.667L730 431L733.333 437.667Z" fill="white"/>
<path fill-rule="evenodd" clip-rule="evenodd" d="M133.333 437.667L140 441L133.333 444.333L130 451L126.667 444.333L120 441L126.667 437.667L130 431L133.333 437.667Z" fill="white"/>
<path fill-rule="evenodd" clip-rule="evenodd" d="M1093.33 437.667L1100 441L1093.33 444.333L1090 451L1086.67 444.333L1080 441L1086.67 437.667L1090 431L1093.33 437.667Z" fill="white"/>
<path fill-rule="evenodd" clip-rule="evenodd" d="M613.333 437.667L620 441L613.333 444.333L610 451L606.667 444.333L600 441L606.667 437.667L610 431L613.333 437.667Z" fill="white"/>
<path fill-rule="evenodd" clip-rule="evenodd" d="M373.333 437.667L380 441L373.333 444.333L370 451L366.667 444.333L360 441L366.667 437.667L370 431L373.333 437.667Z" fill="white"/>
<path fill-rule="evenodd" clip-rule="evenodd" d="M853.333 437.667L860 441L853.333 444.333L850 451L846.667 444.333L840 441L846.667 437.667L850 431L853.333 437.667Z" fill="white"/>
<path fill-rule="evenodd" clip-rule="evenodd" d="M73.3333 437.667L80 441L73.3333 444.333L70 451L66.6667 444.333L60 441L66.6667 437.667L70 431L73.3333 437.667Z" fill="white"/>
<path fill-rule="evenodd" clip-rule="evenodd" d="M1033.33 437.667L1040 441L1033.33 444.333L1030 451L1026.67 444.333L1020 441L1026.67 437.667L1030 431L1033.33 437.667Z" fill="white"/>
<path fill-rule="evenodd" clip-rule="evenodd" d="M553.333 437.667L560 441L553.333 444.333L550 451L546.667 444.333L540 441L546.667 437.667L550 431L553.333 437.667Z" fill="white"/>
<path fill-rule="evenodd" clip-rule="evenodd" d="M313.333 437.667L320 441L313.333 444.333L310 451L306.667 444.333L300 441L306.667 437.667L310 431L313.333 437.667Z" fill="white"/>
<path fill-rule="evenodd" clip-rule="evenodd" d="M1273.33 437.667L1280 441L1273.33 444.333L1270 451L1266.67 444.333L1260 441L1266.67 437.667L1270 431L1273.33 437.667Z" fill="white"/>
<path fill-rule="evenodd" clip-rule="evenodd" d="M793.333 437.667L800 441L793.333 444.333L790 451L786.667 444.333L780 441L786.667 437.667L790 431L793.333 437.667Z" fill="white"/>
<path fill-rule="evenodd" clip-rule="evenodd" d="M193.333 437.667L200 441L193.333 444.333L190 451L186.667 444.333L180 441L186.667 437.667L190 431L193.333 437.667Z" fill="white"/>
<path fill-rule="evenodd" clip-rule="evenodd" d="M1153.33 437.667L1160 441L1153.33 444.333L1150 451L1146.67 444.333L1140 441L1146.67 437.667L1150 431L1153.33 437.667Z" fill="white"/>
<path fill-rule="evenodd" clip-rule="evenodd" d="M673.333 437.667L680 441L673.333 444.333L670 451L666.667 444.333L660 441L666.667 437.667L670 431L673.333 437.667Z" fill="white"/>
<path fill-rule="evenodd" clip-rule="evenodd" d="M433.333 437.667L440 441L433.333 444.333L430 451L426.667 444.333L420 441L426.667 437.667L430 431L433.333 437.667Z" fill="white"/>
<path fill-rule="evenodd" clip-rule="evenodd" d="M913.333 437.667L920 441L913.333 444.333L910 451L906.667 444.333L900 441L906.667 437.667L910 431L913.333 437.667Z" fill="white"/>
</g>
<path fill-rule="evenodd" clip-rule="evenodd" d="M682.592 314.204C716.704 280.106 716.663 224.79 682.554 190.735C648.431 156.598 593.196 156.587 559.083 190.684C552.713 197.048 547.555 204.112 543.593 211.673C538.767 205.655 533.573 198.404 530.646 191.455C530.144 190.218 528.22 184.795 529.209 183.545C530.178 182.223 535.882 182.614 537.21 182.774C542.176 183.286 547.55 184.836 552.687 186.589C553.105 186.223 553.468 185.825 553.831 185.428C555.419 183.855 557.026 182.355 558.652 180.926C540.84 174.147 527.8 173.016 523.281 179.101C513.197 192.489 548.735 236.212 602.577 276.746C656.492 317.262 708.377 339.203 718.417 325.789C722.992 319.736 718.273 307.575 706.83 292.33C705.69 294.769 704.387 297.259 703.015 299.636C706.207 304.042 709.113 308.817 711.038 313.439C711.57 314.621 713.495 320.044 712.506 321.294C711.536 322.617 705.802 322.28 704.473 322.119C696.985 321.304 688.561 318.26 681.401 315.34C681.81 314.968 682.229 314.602 682.592 314.204ZM537.214 227.273C528.266 257.031 535.607 290.601 559.106 314.157C588.818 343.79 634.456 347.695 668.286 325.773C657.92 321.061 647.885 315.545 638.205 309.747C624.361 301.484 611.006 292.349 598.109 282.678C585.212 273.006 572.77 262.65 560.948 251.705C552.732 243.984 544.606 235.854 537.214 227.273Z" fill="white"/>
<path d="M344.422 466.78C341.042 466.78 338.312 466.156 336.232 464.908C334.204 463.66 332.8 461.814 332.02 459.37L333.502 458.824V466H329.29V455.158H333.112C333.32 456.874 333.918 458.33 334.906 459.526C335.946 460.722 337.22 461.606 338.728 462.178C340.236 462.75 341.822 463.036 343.486 463.036C345.93 463.036 347.75 462.62 348.946 461.788C350.142 460.904 350.74 459.734 350.74 458.278C350.74 457.238 350.376 456.354 349.648 455.626C348.972 454.898 347.516 454.274 345.28 453.754L337.792 451.882C335.14 451.206 333.06 450.192 331.552 448.84C330.096 447.488 329.368 445.694 329.368 443.458C329.368 441.586 329.836 439.948 330.772 438.544C331.76 437.14 333.138 436.074 334.906 435.346C336.726 434.566 338.832 434.176 341.224 434.176C343.928 434.176 346.19 434.722 348.01 435.814C349.83 436.906 351.052 438.544 351.676 440.728L350.272 440.884V435.034H354.562V445.018H350.662C350.61 443.302 350.168 441.924 349.336 440.884C348.504 439.844 347.438 439.116 346.138 438.7C344.89 438.232 343.59 437.998 342.238 437.998C339.794 437.998 337.974 438.44 336.778 439.324C335.582 440.156 334.984 441.3 334.984 442.756C334.984 443.848 335.374 444.732 336.154 445.408C336.986 446.032 338.364 446.578 340.288 447.046L347.776 448.84C350.636 449.516 352.794 450.53 354.25 451.882C355.706 453.234 356.434 455.158 356.434 457.654C356.434 459.526 355.94 461.164 354.952 462.568C353.964 463.92 352.56 464.96 350.74 465.688C348.972 466.416 346.866 466.78 344.422 466.78ZM360.286 435.034H371.44V440.104L370.816 440.338C372.012 438.362 373.65 436.854 375.73 435.814C377.81 434.774 380.046 434.254 382.438 434.254C385.714 434.254 388.444 435.008 390.628 436.516C392.812 438.024 394.45 440 395.542 442.444C396.686 444.888 397.258 447.566 397.258 450.478C397.258 453.442 396.686 456.146 395.542 458.59C394.45 461.034 392.812 463.01 390.628 464.518C388.444 466.026 385.714 466.78 382.438 466.78C380.046 466.78 377.81 466.26 375.73 465.22C373.65 464.128 372.012 462.62 370.816 460.696L371.83 460.93V474.97H376.822V479.338H360.676V474.97H366.058V439.402H360.286V435.034ZM381.424 461.944C384.44 461.944 386.884 460.956 388.756 458.98C390.68 456.952 391.642 454.118 391.642 450.478C391.642 446.89 390.68 444.108 388.756 442.132C386.884 440.104 384.44 439.09 381.424 439.09C379.448 439.09 377.576 439.48 375.808 440.26C374.092 440.988 372.636 442.184 371.44 443.848L371.83 441.43V459.76L371.44 457.264C372.636 458.824 374.092 459.994 375.808 460.774C377.576 461.554 379.448 461.944 381.424 461.944ZM415.232 466.78C411.592 466.78 408.784 465.948 406.808 464.284C404.884 462.62 403.922 460.384 403.922 457.576C403.922 454.56 404.988 452.246 407.12 450.634C409.304 449.022 412.346 448.216 416.246 448.216C417.858 448.216 419.548 448.346 421.316 448.606C423.084 448.866 424.826 449.23 426.542 449.698L425.294 450.478V445.954C425.294 443.718 424.618 442.028 423.266 440.884C421.914 439.74 419.834 439.168 417.026 439.168C415.31 439.168 413.568 439.402 411.8 439.87C410.084 440.286 408.446 440.936 406.886 441.82L405.404 437.296C407.276 436.256 409.304 435.502 411.488 435.034C413.672 434.514 415.674 434.254 417.494 434.254C421.966 434.254 425.346 435.268 427.634 437.296C429.922 439.272 431.066 442.236 431.066 446.188V461.632H436.058V466H425.684V461.086L426.542 461.71C425.086 463.374 423.318 464.648 421.238 465.532C419.21 466.364 417.208 466.78 415.232 466.78ZM416.324 462.334C418.092 462.334 419.834 461.996 421.55 461.32C423.266 460.592 424.722 459.604 425.918 458.356L425.294 460.228V452.038L426.542 453.676C424.878 453.208 423.266 452.896 421.706 452.74C420.146 452.532 418.664 452.428 417.26 452.428C414.816 452.428 412.918 452.844 411.566 453.676C410.214 454.508 409.538 455.782 409.538 457.498C409.538 459.058 410.11 460.254 411.254 461.086C412.45 461.918 414.14 462.334 416.324 462.334ZM457.4 466.78C453.864 466.78 450.822 466.078 448.274 464.674C445.726 463.218 443.776 461.268 442.424 458.824C441.072 456.328 440.396 453.52 440.396 450.4C440.396 447.332 441.02 444.602 442.268 442.21C443.516 439.766 445.31 437.842 447.65 436.438C449.99 434.982 452.798 434.254 456.074 434.254C457.842 434.254 459.48 434.54 460.988 435.112C462.496 435.684 463.744 436.49 464.732 437.53C465.772 438.57 466.396 439.844 466.604 441.352L465.824 441.508V435.034H470.036V445.72H466.136C464.992 441.3 461.846 439.09 456.698 439.09C453.162 439.09 450.484 440.156 448.664 442.288C446.896 444.368 446.012 447.124 446.012 450.556C446.012 453.884 447.026 456.64 449.054 458.824C451.082 460.956 453.968 462.022 457.712 462.022C459.584 462.022 461.482 461.606 463.406 460.774C465.33 459.942 466.89 458.902 468.086 457.654L470.816 461.632C469.204 463.244 467.15 464.518 464.654 465.454C462.158 466.338 459.74 466.78 457.4 466.78ZM494.287 466.78C490.387 466.78 487.085 466.078 484.381 464.674C481.729 463.218 479.727 461.268 478.375 458.824C477.075 456.328 476.425 453.572 476.425 450.556C476.425 447.488 477.075 444.732 478.375 442.288C479.727 439.844 481.625 437.894 484.069 436.438C486.513 434.982 489.399 434.254 492.727 434.254C496.055 434.254 498.915 434.982 501.307 436.438C503.699 437.894 505.519 439.844 506.767 442.288C508.067 444.68 508.717 447.436 508.717 450.556V452.818H479.857V448.294H503.257C503.257 446.578 502.815 444.992 501.931 443.536C501.099 442.08 499.877 440.91 498.265 440.026C496.705 439.09 494.859 438.622 492.727 438.622C490.491 438.622 488.567 439.116 486.955 440.104C485.343 441.04 484.095 442.314 483.211 443.926C482.379 445.486 481.963 447.176 481.963 448.996V450.556C481.963 454.04 483.003 456.822 485.083 458.902C487.215 460.982 490.335 462.022 494.443 462.022C496.627 462.022 498.733 461.632 500.761 460.852C502.841 460.072 504.557 459.032 505.909 457.732L508.405 461.866C506.689 463.374 504.583 464.57 502.087 465.454C499.591 466.338 496.991 466.78 494.287 466.78ZM515.985 452.35V448.216H535.173V452.35H515.985ZM540.987 466V461.632H546.369V439.402H540.597V435.034H551.829V443.068L551.049 442.6C552.193 439.948 553.571 437.92 555.183 436.516C556.847 435.06 558.667 434.332 560.643 434.332C562.463 434.332 564.179 434.8 565.791 435.736L563.919 441.274C563.139 440.702 562.385 440.286 561.657 440.026C560.929 439.766 560.201 439.636 559.473 439.636C557.913 439.636 556.483 440.182 555.183 441.274C553.935 442.366 552.921 443.796 552.141 445.564V461.632H558.147V466H540.987ZM584.668 466.78C581.392 466.78 578.506 466.078 576.01 464.674C573.566 463.218 571.668 461.268 570.316 458.824C568.964 456.328 568.288 453.572 568.288 450.556C568.288 447.436 568.964 444.654 570.316 442.21C571.668 439.766 573.566 437.842 576.01 436.438C578.506 434.982 581.392 434.254 584.668 434.254C587.996 434.254 590.882 434.982 593.326 436.438C595.822 437.842 597.746 439.766 599.098 442.21C600.45 444.654 601.126 447.436 601.126 450.556C601.126 453.572 600.45 456.328 599.098 458.824C597.746 461.268 595.822 463.218 593.326 464.674C590.882 466.078 587.996 466.78 584.668 466.78ZM584.668 462.1C587.944 462.1 590.57 461.034 592.546 458.902C594.522 456.718 595.51 453.936 595.51 450.556C595.51 447.124 594.522 444.342 592.546 442.21C590.57 440.078 587.944 439.012 584.668 439.012C581.444 439.012 578.844 440.078 576.868 442.21C574.892 444.342 573.904 447.124 573.904 450.556C573.904 453.936 574.892 456.718 576.868 458.902C578.844 461.034 581.444 462.1 584.668 462.1ZM624.216 466.78C620.68 466.78 617.638 466.078 615.09 464.674C612.542 463.218 610.592 461.268 609.24 458.824C607.888 456.328 607.212 453.52 607.212 450.4C607.212 447.332 607.836 444.602 609.084 442.21C610.332 439.766 612.126 437.842 614.466 436.438C616.806 434.982 619.614 434.254 622.89 434.254C624.658 434.254 626.296 434.54 627.804 435.112C629.312 435.684 630.56 436.49 631.548 437.53C632.588 438.57 633.212 439.844 633.42 441.352L632.64 441.508V435.034H636.852V445.72H632.952C631.808 441.3 628.662 439.09 623.514 439.09C619.978 439.09 617.3 440.156 615.48 442.288C613.712 444.368 612.828 447.124 612.828 450.556C612.828 453.884 613.842 456.64 615.87 458.824C617.898 460.956 620.784 462.022 624.528 462.022C626.4 462.022 628.298 461.606 630.222 460.774C632.146 459.942 633.706 458.902 634.902 457.654L637.632 461.632C636.02 463.244 633.966 464.518 631.47 465.454C628.974 466.338 626.556 466.78 624.216 466.78ZM652.523 461.632H657.047V466H641.369V461.632H646.751V424.894H640.979V420.526H652.523V449.776L665.861 439.402H660.713V435.034H676.157V439.402H671.399L656.501 450.79L658.139 448.06L671.789 461.632H677.639V466H668.045L652.523 450.322V461.632ZM678.684 479.338L701.304 420.526H709.728L687.108 479.338H678.684ZM707.932 479.338V472.63H711.52C713.288 472.63 714.588 472.188 715.42 471.304C716.304 470.42 716.746 469.068 716.746 467.248V441.508H710.818V434.8H726.184V466.39C726.184 470.706 725.092 473.93 722.908 476.062C720.724 478.246 717.604 479.338 713.548 479.338H707.932ZM721.426 430.432C719.658 430.432 718.254 429.912 717.214 428.872C716.226 427.832 715.732 426.48 715.732 424.816C715.732 423.1 716.226 421.722 717.214 420.682C718.254 419.59 719.658 419.044 721.426 419.044C723.194 419.044 724.572 419.59 725.56 420.682C726.6 421.722 727.12 423.1 727.12 424.816C727.12 426.48 726.6 427.832 725.56 428.872C724.572 429.912 723.194 430.432 721.426 430.432ZM751.118 466.78C747.374 466.78 744.592 466.182 742.772 464.986C740.952 463.79 739.73 462.256 739.106 460.384L740.822 459.76V466H734.192V455.392H740.042C740.458 456.588 741.108 457.628 741.992 458.512C742.876 459.344 743.942 459.994 745.19 460.462C746.438 460.878 747.738 461.086 749.09 461.086C750.858 461.086 752.158 460.8 752.99 460.228C753.874 459.656 754.316 458.928 754.316 458.044C754.316 457.42 754.056 456.874 753.536 456.406C753.016 455.886 751.95 455.418 750.338 455.002L743.318 453.286C740.51 452.506 738.274 451.388 736.61 449.932C734.946 448.476 734.114 446.448 734.114 443.848C734.114 441.768 734.634 440 735.674 438.544C736.766 437.036 738.248 435.892 740.12 435.112C742.044 434.332 744.176 433.942 746.516 433.942C749.48 433.942 751.768 434.514 753.38 435.658C755.044 436.75 756.136 438.18 756.656 439.948L755.018 440.026V434.8H761.648V444.628H755.798C755.59 443.536 755.148 442.626 754.472 441.898C753.796 441.17 752.938 440.624 751.898 440.26C750.858 439.844 749.792 439.636 748.7 439.636C747.036 439.636 745.736 439.922 744.8 440.494C743.916 441.066 743.474 441.82 743.474 442.756C743.474 443.484 743.76 444.082 744.332 444.55C744.956 444.966 745.97 445.356 747.374 445.72L754.394 447.436C757.358 448.112 759.646 449.204 761.258 450.712C762.87 452.168 763.676 454.274 763.676 457.03C763.676 459.11 763.13 460.878 762.038 462.334C760.998 463.738 759.516 464.83 757.592 465.61C755.72 466.39 753.562 466.78 751.118 466.78ZM785.615 466.78C782.131 466.78 779.089 466.078 776.489 464.674C773.941 463.218 771.939 461.242 770.483 458.746C769.027 456.25 768.299 453.442 768.299 450.322C768.299 447.202 769.027 444.42 770.483 441.976C771.939 439.532 773.967 437.608 776.567 436.204C779.167 434.748 782.183 434.02 785.615 434.02C789.047 434.02 792.063 434.748 794.663 436.204C797.263 437.608 799.265 439.532 800.669 441.976C802.125 444.42 802.853 447.202 802.853 450.322C802.853 453.442 802.125 456.25 800.669 458.746C799.265 461.242 797.263 463.218 794.663 464.674C792.063 466.078 789.047 466.78 785.615 466.78ZM785.615 459.292C788.059 459.292 790.009 458.46 791.465 456.796C792.973 455.132 793.727 452.974 793.727 450.322C793.727 447.722 792.973 445.616 791.465 444.004C790.009 442.34 788.059 441.508 785.615 441.508C783.119 441.508 781.143 442.34 779.687 444.004C778.231 445.616 777.503 447.722 777.503 450.322C777.503 452.974 778.231 455.132 779.687 456.796C781.143 458.46 783.119 459.292 785.615 459.292ZM806.824 466V459.292H811.348V441.508H806.434V434.8H820.006V439.714L818.992 439.87C820.968 437.842 823.1 436.36 825.388 435.424C827.728 434.488 830.094 434.02 832.486 434.02C835.71 434.02 838.258 434.904 840.13 436.672C842.054 438.44 843.016 441.17 843.016 444.862V459.292H847.15V466H829.132V459.292H833.656V447.28C833.656 445.304 833.214 443.9 832.33 443.068C831.498 442.184 830.172 441.742 828.352 441.742C826.948 441.742 825.518 442.028 824.062 442.6C822.658 443.12 821.254 444.03 819.85 445.33L820.708 442.756V459.292H824.92V466H806.824ZM849.861 466V459.292H854.385V441.508H849.471V434.8H863.043V444.16L862.341 443.224C863.693 440.052 865.253 437.738 867.021 436.282C868.841 434.774 870.765 434.02 872.793 434.02C874.561 434.02 876.147 434.488 877.551 435.424L874.509 444.316C873.781 443.692 873.053 443.25 872.325 442.99C871.649 442.678 870.973 442.522 870.297 442.522C868.893 442.522 867.619 442.99 866.475 443.926C865.383 444.862 864.473 446.162 863.745 447.826V459.292H869.205V466H849.861ZM878.329 434.8H891.901V440.104L891.511 439.948C892.655 437.972 894.215 436.49 896.191 435.502C898.219 434.514 900.299 434.02 902.431 434.02C905.603 434.02 908.255 434.774 910.387 436.282C912.519 437.79 914.131 439.792 915.223 442.288C916.367 444.732 916.939 447.41 916.939 450.322C916.939 453.286 916.367 456.016 915.223 458.512C914.131 461.008 912.519 463.01 910.387 464.518C908.255 466.026 905.603 466.78 902.431 466.78C900.299 466.78 898.219 466.286 896.191 465.298C894.215 464.31 892.655 462.828 891.511 460.852L892.681 460.696V472.63H896.737V479.338H878.641V472.63H883.243V441.508H878.329V434.8ZM899.935 459.136C902.119 459.136 903.965 458.382 905.473 456.874C906.981 455.314 907.735 453.13 907.735 450.322C907.735 447.566 906.981 445.434 905.473 443.926C903.965 442.418 902.119 441.664 899.935 441.664C898.583 441.664 897.231 441.95 895.879 442.522C894.527 443.042 893.305 444.004 892.213 445.408L892.681 442.054V458.824L892.213 455.392C893.305 456.744 894.527 457.706 895.879 458.278C897.231 458.85 898.583 459.136 899.935 459.136ZM939.261 466.78C935.673 466.78 932.553 466.078 929.901 464.674C927.249 463.218 925.195 461.242 923.739 458.746C922.335 456.198 921.633 453.338 921.633 450.166C921.633 447.15 922.257 444.42 923.505 441.976C924.805 439.532 926.625 437.608 928.965 436.204C931.305 434.748 934.035 434.02 937.155 434.02C938.715 434.02 940.197 434.28 941.601 434.8C943.005 435.32 944.175 436.074 945.111 437.062C946.047 438.05 946.567 439.194 946.671 440.494L945.735 440.572V434.8H952.365V446.656H946.437C945.241 443.328 942.719 441.664 938.871 441.664C936.219 441.664 934.217 442.47 932.865 444.082C931.513 445.694 930.837 447.774 930.837 450.322C930.837 452.87 931.617 455.002 933.177 456.718C934.737 458.382 937.051 459.214 940.119 459.214C941.783 459.214 943.421 458.876 945.033 458.2C946.645 457.472 948.023 456.562 949.167 455.47L953.067 461.788C951.455 463.348 949.375 464.57 946.827 465.454C944.331 466.338 941.809 466.78 939.261 466.78Z" fill="white"/>
</svg>
